<?xml version="1.0" standalone="no"?>
<!DOCTYPE svg PUBLIC "-//W3C//DTD SVG 20010904//EN"
 "http://www.w3.org/TR/2001/REC-SVG-20010904/DTD/svg10.dtd">
<svg version="1.0" xmlns="http://www.w3.org/2000/svg"
 width="260.000000pt" height="260.000000pt" viewBox="0 0 260.000000 260.000000"
 preserveAspectRatio="xMidYMid meet">
<metadata>
Created by potrace 1.11, written by Peter Selinger 2001-2013
</metadata>
<g transform="translate(0.000000,260.000000) scale(0.100000,-0.100000)"
fill="#000000" stroke="none">
<path d="M860 1320 l0 -710 120 0 120 0 0 275 0 275 166 0 c180 0 248 11 336
56 176 89 264 291 213 488 -30 114 -104 206 -211 263 -101 54 -171 63 -475 63
l-269 0 0 -710z m606 493 c86 -46 129 -129 122 -241 -5 -96 -42 -155 -121
-196 -54 -28 -65 -30 -212 -34 l-155 -5 0 253 0 252 163 -4 c144 -3 167 -6
203 -25z"/>
</g>
</svg>
